name D:\school\WTK\thesis\model\3dpredictsim\Results\debug_batch\Pog_s1_tmt_aCst_d00_k2000_ig24.mot
datacolumns 128
datarows 4
range 0.53838594 0.57068909
endheader
time	pelvis_tilt	pelvis_list	pelvis_rotation	pelvis_tx	pelvis_ty	pelvis_tz	hip_flexion_l	hip_adduction_l	hip_rotation_l	hip_flexion_r	hip_adduction_r	hip_rotation_r	knee_angle_l	knee_angle_r	ankle_angle_l	ankle_angle_r	subtalar_angle_l	subtalar_angle_r	tmt_angle_l	tmt_angle_r	mtp_angle_l	mtp_angle_r	lumbar_extension	lumbar_bending	lumbar_rotation	arm_flex_l	arm_add_l	arm_rot_l	arm_flex_r	arm_add_r	arm_rot_r	elbow_flex_l	elbow_flex_r	pro_sup_l	pro_sup_r	glut_med1_l/activation	glut_med2_l/activation	glut_med3_l/activation	glut_min1_l/activation	glut_min2_l/activation	glut_min3_l/activation	semimem_l/activation	semiten_l/activation	bifemlh_l/activation	bifemsh_l/activation	sar_l/activation	add_long_l/activation	add_brev_l/activation	add_mag1_l/activation	add_mag2_l/activation	add_mag3_l/activation	tfl_l/activation	pect_l/activation	grac_l/activation	glut_max1_l/activation	glut_max2_l/activation	glut_max3_l/activation	iliacus_l/activation	psoas_l/activation	quad_fem_l/activation	gem_l/activation	peri_l/activation	rect_fem_l/activation	vas_med_l/activation	vas_int_l/activation	vas_lat_l/activation	med_gas_l/activation	lat_gas_l/activation	soleus_l/activation	tib_post_l/activation	flex_dig_l/activation	flex_hal_l/activation	tib_ant_l/activation	per_brev_l/activation	per_long_l/activation	per_tert_l/activation	ext_dig_l/activation	ext_hal_l/activation	ercspn_l/activation	intobl_l/activation	extobl_l/activation	glut_med1_r/activation	glut_med2_r/activation	glut_med3_r/activation	glut_min1_r/activation	glut_min2_r/activation	glut_min3_r/activation	semimem_r/activation	semiten_r/activation	bifemlh_r/activation	bifemsh_r/activation	sar_r/activation	add_long_r/activation	add_brev_r/activation	add_mag1_r/activation	add_mag2_r/activation	add_mag3_r/activation	tfl_r/activation	pect_r/activation	grac_r/activation	glut_max1_r/activation	glut_max2_r/activation	glut_max3_r/activation	iliacus_r/activation	psoas_r/activation	quad_fem_r/activation	gem_r/activation	peri_r/activation	rect_fem_r/activation	vas_med_r/activation	vas_int_r/activation	vas_lat_r/activation	med_gas_r/activation	lat_gas_r/activation	soleus_r/activation	tib_post_r/activation	flex_dig_r/activation	flex_hal_r/activation	tib_ant_r/activation	per_brev_r/activation	per_long_r/activation	per_tert_r/activation	ext_dig_r/activation	ext_hal_r/activation	ercspn_r/activation	intobl_r/activation	extobl_r/activation	
          0.53838594	         -2.92814378	          2.24753198	         -5.52095763	          0.67298242	          0.85792538	          0.00192798	         31.45262884	          3.26724887	         -1.82545482	        -17.92058417	         -1.90213705	          6.96770578	        -15.10201823	         -7.79525775	          6.49523953	          0.50135598	         -2.90238542	         11.03517076	          0.01957880	          0.83140035	         -0.11269872	         22.15917249	         -1.90016234	         -0.64529393	          1.95996989	         -9.24670067	        -13.53123072	          6.31056923	          7.27164509	        -13.45734890	         16.58453999	         14.87227111	         36.56954408	         86.51662706	         86.51662706	          0.05299739	          0.05000224	          0.05000008	          0.05897310	          0.05897307	          0.05000115	          0.05897299	          0.05000062	          0.20183791	          0.05000017	          0.05000082	          0.12180200	          0.28925334	          0.12952842	          0.12001509	          0.09649418	          0.05000007	          0.08195143	          0.07676657	          0.05000019	          0.14503344	          0.15026103	          0.05897316	          0.05000060	          0.16581049	          0.26051447	          0.14264178	          0.06199277	          0.15570112	          0.15238450	          0.13396566	          0.05022669	          0.05067070	          0.05529012	          0.05000000	          0.05000021	          0.05000018	          0.58002297	          0.35948998	          0.20115199	          0.39051288	          0.57223168	          0.30434864	          0.06508897	          0.09737625	          0.10364857	          0.28529826	          0.10291235	          0.06955682	          0.31255131	          0.21465681	          0.10806934	          0.05000105	          0.05000011	          0.05000007	          0.07293139	          0.10519086	          0.10520766	          0.06580979	          0.05000101	          0.05000124	          0.05000038	          0.31049899	          0.11334801	          0.05000106	          0.05000101	          0.05000057	          0.05000050	          0.34124148	          0.57784659	          0.05000012	          0.05000026	          0.05000025	          0.20340677	          0.08849724	          0.06368318	          0.05710263	          0.29735466	          0.40088228	          0.28594963	          0.25822129	          0.25940835	          0.33994291	          0.05000001	          0.05897326	          0.16401798	          0.05000011	          0.05000002	          0.05000009	          0.05000003	          0.05000003	          0.05000002	
          0.54915365	         -2.92119583	          2.33575805	         -5.79961589	          0.68923301	          0.85686490	          0.00172701	         30.79113881	          3.61053198	         -1.56953460	        -17.71706832	         -2.19299009	          6.73883054	        -15.26534835	         -9.84438795	          5.87295251	         -0.33348517	         -3.36507811	         11.96809502	          0.00585393	          0.70753061	         -0.06908024	         23.13379838	         -1.69873462	         -0.86503286	          2.03034962	        -10.27581642	        -13.52453066	          6.20827647	          7.08644961	        -13.46600723	         16.80494121	         14.74471709	         37.64185495	         86.51662706	         86.51662706	          0.05000000	          0.05000003	          0.11217818	          0.05000003	          0.05000004	          0.05000007	          0.05000004	          0.05000010	          0.17112713	          0.05000006	          0.05000049	          0.10326920	          0.24524188	          0.32706249	          0.20874111	          0.11790720	          0.05000093	          0.06948291	          0.08560227	          0.07957763	          0.12296612	          0.12739801	          0.05000012	          0.05897514	          0.39034151	          0.22087571	          0.12093804	          0.06955629	          0.17680896	          0.19188031	          0.15827104	          0.05000018	          0.05897664	          0.05000001	          0.06570866	          0.06955679	          0.06955638	          0.49176914	          0.40366809	          0.23629867	          0.33109422	          0.52202630	          0.25804027	          0.05518531	          0.08255989	          0.08787784	          0.24188851	          0.08725365	          0.05897339	          0.26499488	          0.18199557	          0.09162599	          0.05000328	          0.05000057	          0.05000224	          0.06183448	          0.08918556	          0.19140100	          0.14353669	          0.06955628	          0.05897492	          0.05897414	          0.26325486	          0.09610254	          0.05000437	          0.05000545	          0.05001121	          0.05897312	          0.28931965	          0.53060329	          0.05897313	          0.05897363	          0.05897302	          0.17245728	          0.10834701	          0.15876502	          0.15874534	          0.25211043	          0.33988573	          0.24244074	          0.21893149	          0.21993809	          0.28821877	          0.05000001	          0.05000019	          0.14454692	          0.05000005	          0.05000001	          0.05000007	          0.05642107	          0.06243873	          0.05361524	
          0.55992137	         -2.91051251	          2.42408245	         -6.04970757	          0.70572834	          0.85580350	          0.00153737	         29.96477443	          3.89131727	         -1.29167446	        -17.42802845	         -2.47331310	          6.49824175	        -15.68864565	        -12.03465480	          5.43250136	         -1.33809286	         -3.84462270	         12.83162772	         -0.00451539	          0.58750824	         -0.18481597	         23.93131561	         -1.47909206	         -1.09109090	          2.08968477	        -11.30523780	        -13.52260338	          6.16242437	          6.82197170	        -13.47385909	         16.95607620	         14.64671164	         38.67895587	         86.51662706	         86.51662706	          0.25689909	          0.25800313	          0.31833153	          0.34792437	          0.22309153	          0.19269417	          0.07808780	          0.05001376	          0.14844709	          0.08203965	          0.05897304	          0.08755623	          0.20792694	          0.27729810	          0.17698003	          0.10276422	          0.05000025	          0.05891291	          0.07257784	          0.17234022	          0.15805329	          0.10801375	          0.05584091	          0.05000183	          0.33094885	          0.18726828	          0.24528704	          0.05897291	          0.14990649	          0.16268465	          0.13418921	          0.05000045	          0.05000308	          0.05463512	          0.05571073	          0.05897344	          0.05897319	          0.57913462	          0.42357042	          0.21414368	          0.44698786	          0.60928322	          0.31461233	          0.06593526	          0.10092280	          0.07450672	          0.34338355	          0.07397752	          0.05000028	          0.35414189	          0.15430396	          0.07768460	          0.05093707	          0.05000014	          0.05000011	          0.05242607	          0.07561623	          0.16227828	          0.12169683	          0.05897295	          0.05000172	          0.05000097	          0.25683252	          0.08148100	          0.05000069	          0.05000130	          0.05000065	          0.05000048	          0.24529808	          0.49618557	          0.05000014	          0.05000070	          0.05000016	          0.14621692	          0.09186143	          0.13460805	          0.13459136	          0.21375037	          0.28817015	          0.20555198	          0.18561982	          0.18647332	          0.24436467	          0.05000002	          0.10395353	          0.18524700	          0.05000009	          0.05000013	          0.05000014	          0.05997638	          0.05293832	          0.05000003	
          0.57068909	         -2.89811530	          2.50288452	         -6.26438835	          0.72225817	          0.85477140	          0.00132519	         29.06514097	          4.15594106	         -1.01671032	        -17.03278616	         -2.73564187	          6.26288163	        -16.05706296	        -14.37372205	          5.08241512	         -2.47615915	         -4.34494064	         13.63618817	         -0.00834703	          0.45017025	         -0.19141799	         24.45383355	         -1.26319734	         -1.31268939	          2.13891299	        -12.28319266	        -13.52098291	          6.18298647	          6.51466977	        -13.48820195	         17.06344041	         14.54567850	         39.65692864	         86.51662706	         86.51662706	          0.35196528	          0.37389401	          0.42316315	          0.29498591	          0.18914760	          0.26249045	          0.07378068	          0.11376402	          0.12586006	          0.06955699	          0.05000035	          0.07423408	          0.17628971	          0.23510631	          0.21692885	          0.16158275	          0.05000016	          0.05000504	          0.12468640	          0.25380038	          0.20295468	          0.16013249	          0.05000007	          0.05000007	          0.28059312	          0.15877439	          0.23718658	          0.05000002	          0.17329176	          0.22253648	          0.16753748	          0.05000000	          0.05000002	          0.05000000	          0.05000000	          0.05000034	          0.05000013	          0.64354675	          0.35912183	          0.18156055	          0.67807715	          0.62740823	          0.40300114	          0.08383052	          0.08556681	          0.06317010	          0.29113583	          0.06272143	          0.05000003	          0.30025726	          0.13082576	          0.06586446	          0.06904394	          0.05000011	          0.05000011	          0.05000006	          0.06411091	          0.18630061	          0.14268321	          0.05000055	          0.05000280	          0.05001721	          0.21775424	          0.06908457	          0.05000034	          0.05000119	          0.05000082	          0.05000060	          0.20797458	          0.44649271	          0.05000008	          0.05000030	          0.05000008	          0.12396918	          0.11412728	          0.11412731	          0.11412726	          0.18122701	          0.24432340	          0.17427605	          0.15737671	          0.15810039	          0.20718323	          0.09984141	          0.15558519	          0.15706170	          0.05000105	          0.17071149	          0.05000079	          0.09488603	          0.05000000	          0.05000002	
